<svg xmlns="http://www.w3.org/2000/svg" viewBox="0 0 32 32"><defs><style>.cls-1{fill:#231f20;}</style></defs><g id="filter"><path class="cls-1" d="M27.49,2h-22A1.54,1.54,0,0,0,4,3.53v2a1.53,1.53,0,0,0,.31.93l7.83,10.36A4.32,4.32,0,0,1,13,19.41v4.92a3.57,3.57,0,0,0,1.36,2.8l3.22,2.5a1.52,1.52,0,0,0,.93.32,1.44,1.44,0,0,0,.67-.16A1.5,1.5,0,0,0,20,28.42l0-9a4.32,4.32,0,0,1,.86-2.6L28.69,6.47A1.53,1.53,0,0,0,29,5.54v-2A1.52,1.52,0,0,0,27.49,2ZM27,5.39,19.27,15.61A6.37,6.37,0,0,0,18,19.43l0,8-2.45-1.89A1.57,1.57,0,0,1,15,24.33V19.41a6.29,6.29,0,0,0-1.27-3.79L6,5.39V4H27Z"/></g></svg>