<svg id="Layer_1" data-name="Layer 1" xmlns="http://www.w3.org/2000/svg" xmlns:xlink="http://www.w3.org/1999/xlink" viewBox="0 0 359.52 297.48"><defs><style>.cls-1{fill:#fff;stroke:#1d1d1b;}.cls-1,.cls-2{stroke-miterlimit:10;}.cls-2{fill:#060707;stroke:url(#radial-gradient);}</style><radialGradient id="radial-gradient" cx="309.22" cy="394.8" r="164.98" gradientUnits="userSpaceOnUse"><stop offset="0.26" stop-color="#334194"/><stop offset="1" stop-color="#267cc0" stop-opacity="0.03"/><stop offset="1" stop-color="#2581c4" stop-opacity="0"/></radialGradient></defs><path class="cls-1" d="M500.74,232.82" transform="translate(-129.46 -246.06)"/><path class="cls-2" d="M448.56,464.07c-20.55-7-38.57-2-73.08,8.28-1,.31-2.23.69-3.57,1.15q6.43-4.59,13.12-10a272.34,272.34,0,0,0,31.12-29.57c2.3-2.38,3.42-3.51,3.69-3.75.08-.06.32-.35.7-.73l.07-.09.85-1.23c7.86-13.8-18.33-44.4-38.49-60.54-9.77-7.82-28.14-20.26-56.61-27a34.42,34.42,0,0,0-8.13-61.91,17.7,17.7,0,1,0-20.6,0,34.42,34.42,0,0,0-7.8,62.11c-28,6.81-46.1,19.09-55.78,26.83-20.16,16.14-46.34,46.74-38.48,60.54,2.17,3.82,6.41,5.11,14.88,7.7,9.19,2.81,20,4.12,45.15.51,21.55-3.09,32.33-4.64,38.48-10.26,11.7-10.69,15.79-30.11,10.26-34.89-3.88-3.36-14-.76-15.21,3.27-.5,1.64.72,2.71,1.36,4.94,1.86,6.45-3,14.47-8.28,18.61-3.53,2.74-7.36,3.58-15,5.28-2.09.46-5,.78-11,1.64-17,2.46-24.27,1.55-30.47-.34-5.71-1.75-8.57-2.62-10-5.2-5.43-9.44,14.3-30.75,26-40.86,10.53-9.12,31.48-23.81,66.82-28.9,35.35,5.09,56.3,19.78,66.83,28.9,11.67,10.11,31.39,31.42,26,40.86-1.48,2.58-4.33,3.45-10,5.2-6.2,1.89-13.53,2.8-30.48.34-5.93-.86-8.87-1.18-11-1.64-7.66-1.7-11.48-2.54-15-5.28-5.32-4.14-10.14-12.16-8.28-18.61.64-2.23,1.86-3.3,1.35-4.94-1.23-4-11.33-6.63-15.21-3.27-5.52,4.78-1.44,24.2,10.26,34.89,6.16,5.62,16.93,7.17,38.49,10.26,16.83,2.42,27.24,2.63,35.05,1.65A222.07,222.07,0,0,1,364,465.67c-23.64,16.48-45.76,25-59.68,30.31l-5-2-.07,0-2.38-.94c-30.71-12.17-46.26-18.31-53.86-20.67-30.79-9.56-50.95-15.85-73.08-8.28-17.24,5.9-40.19,21.67-39.91,41.28.2,13.86,11.95,24.09,16.22,27.41,21.62,16.74,52.64,10.08,94.53.56a410.92,410.92,0,0,0,61-19l7.53-2.91,7.54,2.91a410.56,410.56,0,0,0,61,19c42.3,9.62,73,16.15,94.53-.56,4.27-3.32,16-13.55,16.22-27.41C488.75,485.74,465.8,470,448.56,464.07Zm-140-208c9.67,0,9.65,15,0,15S298.86,256,308.51,256Zm-.31,74.68c-11.21,0-19.51-9.17-20-20s9.54-20,20-20c11.22,0,19.52,9.16,20,20S318.67,330.72,308.2,330.72ZM234.85,520.48c-52.79,12.78-63.51,9.6-70.77,5-.68-.44-15.93-10.36-15.1-22.94,1-14.73,23.43-24.28,37.48-26.85,11.1-2,20.21-.29,33.56,2.24a155.43,155.43,0,0,1,29.64,8.95c18.72,7.34,29.75,11.67,29.65,16.78C279.26,506.12,276.61,510.38,234.85,520.48Zm219.5,5c-7.26,4.59-18,7.77-70.77-5-41.76-10.1-44.41-14.36-44.46-16.81-.11-5.11,10.93-9.44,29.65-16.78a155.43,155.43,0,0,1,29.64-8.95c13.35-2.53,22.46-4.27,33.56-2.24,14,2.57,36.51,12.12,37.48,26.85C470.28,515.13,455,525.05,454.35,525.49Z" transform="translate(-129.46 -246.06)"/></svg>